# Blender v2.80 (sub 75) OBJ File: ''
# www.blender.org
mtllib debris-0.mtl
o Cube_Cube.001
v -0.183093 -0.483308 0.545851
v -0.150201 0.510775 0.525496
v -0.174246 -0.458229 -0.547490
v -0.147457 0.524922 -0.553964
v -0.032577 -0.477421 0.541179
v -0.003038 0.496128 0.520034
v -0.022957 -0.438397 -0.562687
v -0.002433 0.499394 -0.563483
v -0.154005 -0.505904 0.372807
v -0.143352 0.527674 0.364868
v -0.001135 -0.470760 0.344914
v -0.000466 0.491267 0.351292
v -0.000466 0.491267 0.351292
v -0.001135 -0.470760 0.344914
v -0.143352 0.527674 0.364868
v -0.154005 -0.505904 0.372807
v 0.003674 0.499826 0.247067
v -0.136142 -0.519654 0.261237
v 0.016770 -0.478143 0.229951
v -0.139156 0.538004 0.260997
v -0.163373 -0.474681 -0.445695
v -0.002291 0.492201 -0.463079
v -0.010904 -0.441653 -0.471550
v -0.145199 0.528497 -0.449544
v 0.003674 0.499826 0.247067
v -0.136142 -0.519654 0.261237
v 0.016770 -0.478143 0.229951
v -0.139156 0.538004 0.260997
v -0.133696 0.505999 -0.069505
v 0.008739 -0.467732 -0.045226
v -0.138117 -0.492501 -0.070748
v 0.021172 0.476670 -0.044593
v -0.163373 -0.474681 -0.445695
v -0.002291 0.492201 -0.463079
v -0.010904 -0.441653 -0.471550
v -0.145199 0.528497 -0.449544
v 0.001306 0.497093 -0.371858
v -0.145199 -0.501275 -0.360994
v 0.006496 -0.464759 -0.386345
v -0.139949 0.533884 -0.361809
v 0.154333 0.457131 0.234210
v 0.152740 0.453194 0.346300
v 0.172040 -0.441093 0.314125
v 0.178760 -0.446100 0.199150
v 0.151466 0.452558 -0.481249
v 0.165832 -0.425215 -0.514410
v 0.153544 0.455862 -0.391558
v 0.175612 -0.440360 -0.426752
v -0.188500 -0.318054 0.554304
v -0.200416 -0.149966 0.558185
v -0.211662 0.028003 0.557733
v -0.200416 0.202676 0.558185
v -0.177773 0.362323 0.543220
v -0.176518 0.368794 -0.561737
v -0.200416 0.202676 -0.568265
v -0.211662 0.028002 -0.568717
v -0.200416 -0.149966 -0.568265
v -0.185496 -0.309645 -0.561148
v -0.027234 0.364935 -0.563176
v -0.050374 0.202676 -0.568265
v -0.061620 0.028002 -0.568717
v -0.050373 -0.149966 -0.568265
v -0.035549 -0.308897 -0.561499
v -0.027764 0.362153 0.543157
v -0.050374 0.202676 0.558185
v -0.061620 0.028002 0.557733
v -0.050373 -0.149966 0.558185
v -0.038457 -0.318054 0.554304
v -0.025720 0.362646 0.369557
v -0.050374 0.202676 0.375961
v -0.061620 0.028002 0.375509
v -0.050373 -0.149966 0.375961
v -0.025362 -0.323737 0.372751
v -0.173988 0.371676 0.372924
v -0.200416 0.202676 0.375961
v -0.211662 0.028002 0.375509
v -0.200416 -0.149966 0.375961
v -0.175744 -0.327963 0.376106
v -0.024372 0.366059 0.256657
v -0.050374 0.202676 0.258850
v -0.061620 0.028002 0.258398
v -0.050373 -0.149966 0.258850
v -0.022352 -0.326930 0.257250
v -0.172670 0.374931 0.259965
v -0.200416 0.202676 0.258850
v -0.211662 0.028002 0.258398
v -0.200416 -0.149966 0.258850
v -0.172670 -0.330351 0.259965
v -0.027034 0.361747 -0.459152
v -0.050374 0.202676 -0.460642
v -0.061620 0.028002 -0.461094
v -0.050373 -0.149966 -0.460642
v -0.030489 -0.311832 -0.459748
v -0.175314 0.370714 -0.455808
v -0.200416 0.202676 -0.460642
v -0.211662 0.028002 -0.461094
v -0.200416 -0.149966 -0.460642
v -0.180687 -0.316721 -0.456238
v -0.027034 0.361747 -0.459152
v -0.050374 0.202676 -0.460642
v -0.061620 0.028002 -0.461094
v -0.050373 -0.149966 -0.460642
v -0.030489 -0.311832 -0.459748
v -0.170756 0.365778 -0.070594
v -0.199552 0.200614 -0.071629
v -0.210798 0.025941 -0.072081
v -0.199552 -0.152028 -0.071629
v -0.171906 -0.329047 -0.071162
v -0.017101 0.344641 -0.045591
v -0.048765 0.198837 -0.046407
v -0.060011 0.024164 -0.046859
v -0.048765 -0.153804 -0.046407
v -0.023410 -0.315358 -0.045766
v -0.024974 0.364661 -0.365732
v -0.050271 0.202432 -0.364656
v -0.061517 0.027759 -0.365108
v -0.050271 -0.150210 -0.364656
v -0.023297 -0.323236 -0.367167
v 0.128090 0.332400 0.363435
v 0.107752 0.196701 0.376909
v 0.096506 0.022028 0.376457
v 0.107752 -0.155940 0.376909
v 0.136626 -0.306840 0.354975
v 0.128733 0.334545 0.248082
v 0.107752 0.196701 0.259799
v 0.096506 0.022028 0.259347
v 0.107752 -0.155940 0.259799
v 0.137643 -0.309660 0.239751
v 0.127208 0.331461 -0.469881
v 0.107752 0.196701 -0.459693
v 0.096506 0.022028 -0.460145
v 0.107752 -0.155940 -0.459693
v 0.133177 -0.296442 -0.481672
v 0.128499 0.333893 -0.378748
v 0.107754 0.196697 -0.367112
v 0.096508 0.022024 -0.367564
v 0.107754 -0.155944 -0.367112
v 0.137701 -0.306865 -0.389115
vt 0.784970 0.779581
vt 0.725435 0.780950
vt 0.728508 0.758248
vt 0.786602 0.756554
vt 0.279379 0.813418
vt 0.243557 0.765997
vt 0.243524 0.521131
vt 0.279346 0.568551
vt 0.282223 0.914078
vt 0.282775 0.964036
vt 0.248345 0.952625
vt 0.245632 0.907667
vt 0.034096 0.927140
vt 0.000000 0.972134
vt 0.000000 0.727268
vt 0.034096 0.682273
vt 0.200753 0.532669
vt 0.200763 0.287803
vt 0.238160 0.335283
vt 0.238150 0.580149
vt 0.440543 0.256058
vt 0.440542 0.011193
vt 0.475361 0.000000
vt 0.475361 0.244865
vt 0.418042 0.262928
vt 0.418042 0.018063
vt 0.176666 0.503528
vt 0.176674 0.258656
vt 0.955270 0.005987
vt 0.955664 0.266741
vt 0.975012 0.263411
vt 0.975012 0.000000
vt 0.789065 0.996748
vt 0.733893 0.992899
vt 0.723568 0.957988
vt 0.783368 0.959730
vt 0.659240 0.828727
vt 0.713585 0.828785
vt 0.712215 0.895126
vt 0.658012 0.895126
vt 0.105053 0.499681
vt 0.110486 0.253599
vt 0.352707 0.265717
vt 0.347258 0.019637
vt 0.717231 0.935416
vt 0.781384 0.935176
vt 0.243524 0.249403
vt 0.243524 0.004538
vt 0.265845 0.008227
vt 0.265845 0.253092
vt 0.002779 0.565721
vt 0.002929 0.321442
vt 0.024718 0.303492
vt 0.024616 0.547970
vt 0.365741 0.922990
vt 0.365997 0.875555
vt 0.388309 0.870761
vt 0.388448 0.919911
vt 0.780798 0.863337
vt 0.716514 0.863637
vt 0.958245 0.895652
vt 0.977023 0.925307
vt 0.976691 0.680831
vt 0.957242 0.652878
vt 0.916870 0.442188
vt 0.957242 0.478176
vt 0.957242 0.754968
vt 0.915352 0.703353
vt 0.654243 0.759915
vt 0.705623 0.760662
vt 0.307881 0.915991
vt 0.307994 0.970818
vt 0.283816 0.968805
vt 0.282943 0.915896
vt 0.975353 0.261839
vt 0.975780 0.324607
vt 0.995091 0.327551
vt 0.994936 0.263560
vt 0.679579 0.444833
vt 0.679122 0.703614
vt 0.716514 0.757361
vt 0.716514 0.496609
vt 0.977023 0.398494
vt 0.957875 0.382547
vt 0.919711 0.052102
vt 0.915913 0.315654
vt 0.955270 0.363664
vt 0.955270 0.081264
vt 0.680432 0.063218
vt 0.718152 0.117756
vt 0.718152 0.375959
vt 0.680382 0.321279
vt 0.442558 0.518526
vt 0.418430 0.521131
vt 0.176881 0.000000
vt 0.201676 0.011029
vt 0.475474 0.123890
vt 0.518627 0.064062
vt 0.518577 0.322123
vt 0.475361 0.382547
vt 0.559779 0.018566
vt 0.559730 0.276627
vt 0.600515 0.000000
vt 0.600465 0.258061
vt 0.640682 0.018144
vt 0.640632 0.276205
vt 0.724425 0.105594
vt 0.718152 0.368927
vt 0.756341 0.317478
vt 0.761807 0.057348
vt 0.796403 0.275365
vt 0.801336 0.017352
vt 0.836910 0.258013
vt 0.841843 0.000000
vt 0.877278 0.277376
vt 0.882211 0.019363
vt 0.478996 0.489068
vt 0.475361 0.759397
vt 0.517540 0.704108
vt 0.518652 0.444522
vt 0.558644 0.658902
vt 0.559306 0.401006
vt 0.599428 0.640444
vt 0.600090 0.382547
vt 0.639548 0.658694
vt 0.640210 0.400797
vt 0.309410 0.886386
vt 0.308427 0.933460
vt 0.327920 0.926010
vt 0.328489 0.870761
vt 0.307994 0.970829
vt 0.327933 0.971186
vt 0.308549 0.989264
vt 0.328489 0.989621
vt 0.975144 0.161426
vt 0.975012 0.203727
vt 0.994960 0.203836
vt 0.995091 0.161534
vt 0.923703 0.952032
vt 0.922944 0.880577
vt 0.948071 0.879209
vt 0.948338 0.944326
vt 0.922443 0.819903
vt 0.947673 0.819862
vt 0.922438 0.776036
vt 0.947668 0.775995
vt 0.923108 0.755081
vt 0.948338 0.755041
vt 0.307994 0.870761
vt 0.282775 0.871372
vt 0.544409 0.959623
vt 0.477089 0.942130
vt 0.475688 0.883258
vt 0.544132 0.887480
vt 0.475361 0.824216
vt 0.543945 0.826459
vt 0.475482 0.780349
vt 0.544065 0.782593
vt 0.476211 0.759397
vt 0.544795 0.761640
vt 0.614408 0.828471
vt 0.610538 0.759397
vt 0.719902 0.492592
vt 0.756335 0.443034
vt 0.754000 0.702532
vt 0.716514 0.755041
vt 0.795643 0.400395
vt 0.793823 0.658450
vt 0.835938 0.382547
vt 0.834118 0.640602
vt 0.876536 0.401413
vt 0.874716 0.659468
vt 0.177413 0.563197
vt 0.106068 0.561173
vt 0.178164 0.608547
vt 0.106966 0.607136
vt 0.179046 0.626968
vt 0.107848 0.625558
vt 0.882727 0.934838
vt 0.840798 0.934931
vt 0.840212 0.863092
vt 0.882141 0.862999
vt 0.023214 0.576285
vt 0.023182 0.608547
vt 0.024064 0.626968
vt 0.840798 0.778529
vt 0.882727 0.778435
vt 0.978158 0.147148
vt 0.975853 0.108819
vt 0.998468 0.115181
vt 1.000000 0.161426
vt 0.975012 0.064799
vt 0.998195 0.065177
vt 0.975778 0.020939
vt 0.998962 0.021317
vt 0.976817 0.000000
vt 1.000000 0.000378
vt 0.365293 0.961996
vt 0.388448 0.960861
vt 0.202443 0.568215
vt 0.203390 0.608547
vt 0.204272 0.626968
vt 0.882727 0.960295
vt 0.840798 0.960388
vt 0.610015 0.884919
vt 0.610538 0.955960
vt 0.609688 0.824243
vt 0.609808 0.780377
vt 0.610538 0.759424
vt 0.613180 0.894870
vt 0.365293 0.918531
vt 0.328545 0.931417
vt 0.328489 0.910461
vt 0.365293 0.870761
vt 0.240881 0.589036
vt 0.242642 0.608547
vt 0.243524 0.626968
vt 0.882727 0.999907
vt 0.840798 1.000000
vt 0.228098 0.918457
vt 0.190206 0.909634
vt 0.190206 0.664768
vt 0.228098 0.673591
vt 0.151654 0.890188
vt 0.151654 0.645322
vt 0.110825 0.871835
vt 0.110825 0.626968
vt 0.070754 0.890188
vt 0.070754 0.645322
vt 0.883979 0.931793
vt 0.883998 0.877520
vt 0.921981 0.862589
vt 0.920332 0.898350
vt 0.883182 0.820339
vt 0.922438 0.819865
vt 0.882727 0.776474
vt 0.921983 0.776001
vt 0.883182 0.755514
vt 0.922438 0.755041
vt 0.282775 0.871015
vt 0.243524 0.870761
vt 0.469123 0.809686
vt 0.435030 0.828048
vt 0.435012 0.583445
vt 0.469123 0.565408
vt 0.398396 0.852402
vt 0.398362 0.607535
vt 0.357568 0.870761
vt 0.357535 0.625894
vt 0.317492 0.852413
vt 0.317459 0.607547
vt 0.000655 0.584136
vt 0.000000 0.608547
vt 0.000882 0.626968
vt 0.840798 0.755134
vt 0.882727 0.755041
vt 0.042716 0.518299
vt 0.043498 0.275524
vn -0.9827 0.1847 0.0113
vn -0.0340 0.0320 -0.9989
vn 0.9827 -0.1846 0.0156
vn 0.0253 0.1385 0.9900
vn 0.1407 -0.9879 0.0657
vn 0.1758 0.9836 0.0410
vn 0.2602 0.9606 0.0976
vn 0.2648 -0.9554 0.1309
vn 0.2492 0.9671 -0.0516
vn -0.9823 0.1864 -0.0168
vn 0.9690 -0.2399 0.0584
vn 0.2143 -0.9747 -0.0638
vn 0.2232 0.9717 -0.0779
vn -0.9804 0.1968 -0.0126
vn 0.2110 0.9774 0.0148
vn 0.1547 -0.9808 -0.1186
vn 0.9829 -0.1840 -0.0110
vn -0.9753 0.2191 0.0283
vn -0.9736 0.2267 -0.0250
vn 0.2137 0.9762 0.0371
vn 0.1624 -0.9374 -0.3082
vn 0.1677 -0.2002 0.9653
vn 0.9697 -0.2378 -0.0564
vn 0.9794 -0.2017 0.0042
vn 0.9797 -0.1999 -0.0119
vn 0.1179 0.0500 0.9918
vn 0.0607 -0.9725 -0.2247
vn -0.1969 0.1276 -0.9721
vn -0.0878 -0.0725 -0.9935
vn 0.2598 0.9636 0.0626
vn 0.1936 -0.9783 0.0735
vn -0.1729 0.1803 -0.9683
vn -0.0539 0.0558 -0.9970
vn 0.0059 -0.0022 -1.0000
vn 0.0061 0.0022 -1.0000
vn -0.0295 -0.0415 -0.9987
vn -0.1024 -0.0405 -0.9939
vn -0.0341 -0.0246 -0.9991
vn -0.0667 0.0595 -0.9960
vn 0.2014 -0.1504 0.9679
vn 0.0782 -0.0616 0.9950
vn 0.0157 0.0035 0.9999
vn 0.0154 -0.0036 0.9999
vn 0.0536 0.0341 0.9980
vn 0.9623 0.2692 -0.0382
vn 0.9820 0.1886 -0.0134
vn 0.9980 0.0631 -0.0000
vn 0.9979 -0.0643 -0.0000
vn 0.9892 -0.1466 -0.0050
vn 0.9638 0.2655 0.0234
vn 0.9819 0.1892 0.0020
vn 0.9888 -0.1492 0.0014
vn 0.9784 0.2065 -0.0047
vn 0.9880 0.1545 -0.0032
vn 0.9980 0.0631 -0.0040
vn 0.9979 -0.0642 -0.0054
vn 0.9831 -0.1818 -0.0212
vn 0.0642 0.1276 0.9897
vn 0.0239 0.0634 0.9977
vn -0.0061 -0.0022 1.0000
vn -0.0059 0.0022 1.0000
vn 0.0547 -0.0681 0.9962
vn -0.9807 -0.1955 -0.0066
vn -0.9882 -0.1532 -0.0023
vn -0.9980 -0.0631 -0.0022
vn -0.9979 0.0643 -0.0030
vn -0.9862 0.1653 -0.0069
vn -0.9871 -0.1556 0.0380
vn -0.9906 -0.1364 0.0098
vn -0.9980 -0.0631 0.0019
vn -0.9979 0.0642 0.0026
vn -0.9872 0.1595 0.0084
vn 0.9884 0.1268 -0.0836
vn 0.9940 0.1070 -0.0225
vn 0.9897 -0.1431 -0.0031
vn -0.9846 -0.1558 -0.0795
vn -0.9894 -0.1448 -0.0116
vn -0.9980 -0.0631 0.0000
vn -0.9979 0.0643 0.0000
vn -0.9876 0.1568 -0.0034
vn 0.9734 0.2291 -0.0066
vn 0.9878 0.1557 0.0029
vn 0.9980 0.0631 0.0045
vn 0.9979 -0.0643 0.0061
vn 0.9828 -0.1832 0.0220
vn -0.9910 -0.0746 -0.1112
vn -0.9940 -0.1047 -0.0323
vn -0.9891 0.1473 -0.0067
vn 0.0168 -0.0657 0.9977
vn 0.0000 -0.0231 0.9997
vn 0.0000 0.0025 1.0000
vn -0.0000 -0.0026 1.0000
vn 0.0003 0.0935 0.9956
vn 0.9898 0.0816 0.1169
vn 0.9937 0.1066 0.0341
vn 0.9893 -0.1460 0.0055
vn -0.0482 -0.0489 -0.9976
vn -0.0011 -0.0436 -0.9990
vn 0.0000 -0.0025 -1.0000
vn 0.0000 0.0026 -1.0000
vn -0.0043 0.0360 -0.9993
vn -0.9940 -0.0875 0.0655
vn -0.9943 -0.1049 0.0190
vn -0.9894 0.1449 0.0043
vn 0.2011 -0.9796 0.0060
usemtl Material.002
s off
f 94/1/1 24/2/1 4/3/1 54/4/1
f 54/5/2 4/6/2 8/7/2 59/8/2
f 69/9/3 12/10/3 6/11/3 64/12/3
f 64/13/4 6/14/4 2/15/4 53/16/4
f 9/17/5 11/18/5 5/19/5 1/20/5
f 12/21/6 10/22/6 2/23/6 6/24/6
f 17/25/7 20/26/7 10/22/7 12/21/7
f 18/27/8 19/28/8 11/18/8 9/17/8
f 37/29/9 47/30/9 45/31/9 34/32/9
f 53/33/10 2/34/10 10/35/10 74/36/10
f 109/37/11 32/38/11 17/39/11 79/40/11
f 31/41/12 30/42/12 19/28/12 18/27/12
f 32/43/13 29/44/13 20/26/13 17/25/13
f 74/36/14 10/35/14 20/45/14 84/46/14
f 8/47/15 4/48/15 24/49/15 22/50/15
f 3/51/16 7/52/16 23/53/16 21/54/16
f 59/55/17 8/56/17 22/57/17 89/58/17
f 104/59/18 29/60/18 24/2/18 94/1/18
f 84/46/19 20/45/19 29/60/19 104/59/19
f 22/50/20 24/49/20 29/44/20 32/43/20
f 38/61/21 33/62/21 35/63/21 39/64/21
f 73/65/22 11/66/22 43/67/22 123/68/22
f 109/37/23 114/69/23 37/70/23 32/38/23
f 124/71/24 41/72/24 42/73/24 119/74/24
f 129/75/25 45/76/25 47/77/25 134/78/25
f 114/79/26 134/80/26 47/81/26 37/82/26
f 35/63/27 46/83/27 48/84/27 39/64/27
f 103/85/28 133/86/28 46/87/28 35/88/28
f 79/89/29 17/90/29 41/91/29 124/92/29
f 17/25/30 12/21/30 42/93/30 41/94/30
f 11/18/31 19/28/31 44/95/31 43/96/31
f 19/97/32 83/98/32 128/99/32 44/100/32
f 83/98/33 82/101/33 127/102/33 128/99/33
f 82/101/34 81/103/34 126/104/34 127/102/34
f 81/103/35 80/105/35 125/106/35 126/104/35
f 80/105/36 79/89/36 124/92/36 125/106/36
f 34/107/37 45/108/37 129/109/37 99/110/37
f 99/110/38 129/109/38 130/111/38 100/112/38
f 100/112/35 130/111/35 131/113/35 101/114/35
f 101/114/34 131/113/34 132/115/34 102/116/34
f 102/116/39 132/115/39 133/86/39 103/85/39
f 39/117/40 48/118/40 138/119/40 118/120/40
f 118/120/41 138/119/41 137/121/41 117/122/41
f 117/122/42 137/121/42 136/123/42 116/124/42
f 116/124/43 136/123/43 135/125/43 115/126/43
f 115/126/44 135/125/44 134/80/44 114/79/44
f 46/127/45 133/128/45 138/129/45 48/130/45
f 133/128/46 132/131/46 137/132/46 138/129/46
f 132/131/47 131/133/47 136/134/47 137/132/47
f 131/135/48 130/136/48 135/137/48 136/138/48
f 130/136/49 129/75/49 134/78/49 135/137/49
f 44/139/50 128/140/50 123/141/50 43/142/50
f 128/140/51 127/143/51 122/144/51 123/141/51
f 127/143/47 126/145/47 121/146/47 122/144/47
f 126/145/48 125/147/48 120/148/48 121/146/48
f 125/149/52 124/71/52 119/74/52 120/150/52
f 30/151/53 39/152/53 118/153/53 113/154/53
f 113/154/54 118/153/54 117/155/54 112/156/54
f 112/156/55 117/155/55 116/157/55 111/158/55
f 111/158/56 116/157/56 115/159/56 110/160/56
f 110/161/57 115/162/57 114/69/57 109/37/57
f 12/163/58 69/164/58 119/165/58 42/166/58
f 69/164/59 70/167/59 120/168/59 119/165/59
f 70/167/60 71/169/60 121/170/60 120/168/60
f 71/169/61 72/171/61 122/172/61 121/170/61
f 72/171/62 73/65/62 123/68/62 122/172/62
f 18/27/63 88/173/63 108/174/63 31/41/63
f 88/173/64 87/175/64 107/176/64 108/174/64
f 87/175/65 86/177/65 106/178/65 107/176/65
f 86/179/66 85/180/66 105/181/66 106/182/66
f 85/180/67 84/46/67 104/59/67 105/181/67
f 31/41/68 108/174/68 98/183/68 21/54/68
f 108/174/69 107/176/69 97/184/69 98/183/69
f 107/176/70 106/178/70 96/185/70 97/184/70
f 106/182/71 105/181/71 95/186/71 96/187/71
f 105/181/72 104/59/72 94/1/72 95/186/72
f 7/188/73 63/189/73 93/190/73 23/191/73
f 63/189/74 62/192/74 92/193/74 93/190/74
f 62/192/47 61/194/47 91/195/47 92/193/47
f 61/194/48 60/196/48 90/197/48 91/195/48
f 60/198/75 59/55/75 89/58/75 90/199/75
f 9/17/76 78/200/76 88/173/76 18/27/76
f 78/200/77 77/201/77 87/175/77 88/173/77
f 77/201/78 76/202/78 86/177/78 87/175/78
f 76/203/79 75/204/79 85/180/79 86/179/79
f 75/204/80 74/36/80 84/46/80 85/180/80
f 30/151/81 113/154/81 83/205/81 19/206/81
f 113/154/82 112/156/82 82/207/82 83/205/82
f 112/156/83 111/158/83 81/208/83 82/207/83
f 111/158/84 110/160/84 80/209/84 81/208/84
f 110/161/85 109/37/85 79/40/85 80/210/85
f 1/211/86 49/212/86 78/213/86 9/214/86
f 49/215/87 50/216/87 77/201/87 78/200/87
f 50/216/78 51/217/78 76/202/78 77/201/78
f 51/218/79 52/219/79 75/204/79 76/203/79
f 52/219/88 53/33/88 74/36/88 75/204/88
f 5/220/89 68/221/89 49/222/89 1/223/89
f 68/221/90 67/224/90 50/225/90 49/222/90
f 67/224/91 66/226/91 51/227/91 50/225/91
f 66/226/92 65/228/92 52/229/92 51/227/92
f 65/228/93 64/13/93 53/16/93 52/229/93
f 11/230/94 73/231/94 68/232/94 5/233/94
f 73/231/95 72/234/95 67/235/95 68/232/95
f 72/234/47 71/236/47 66/237/47 67/235/47
f 71/236/48 70/238/48 65/239/48 66/237/48
f 70/240/96 69/9/96 64/12/96 65/241/96
f 3/242/97 58/243/97 63/244/97 7/245/97
f 58/243/98 57/246/98 62/247/98 63/244/98
f 57/246/99 56/248/99 61/249/99 62/247/99
f 56/248/100 55/250/100 60/251/100 61/249/100
f 55/250/101 54/5/101 59/8/101 60/251/101
f 21/54/102 98/183/102 58/252/102 3/51/102
f 98/183/103 97/184/103 57/253/103 58/252/103
f 97/184/78 96/185/78 56/254/78 57/253/78
f 96/187/79 95/186/79 55/255/79 56/256/79
f 95/186/104 94/1/104 54/4/104 55/255/104
f 31/41/105 38/257/105 39/258/105 30/42/105
l 15 16
l 13 14
l 14 16
l 15 13
l 25 27
l 27 26
l 28 25
l 28 26
l 36 34
l 36 33
l 40 37
l 40 38
