# Blender v2.80 (sub 75) OBJ File: ''
# www.blender.org
mtllib debris-1.mtl
o Ship_2.001_Cube.000
v -0.718175 -0.322012 -0.230550
v -0.632041 0.634381 -0.104790
v -0.262609 0.756717 -0.461534
v -0.073152 -0.108413 -0.853422
v -0.590657 -0.349616 -0.107962
v 0.054367 -0.136017 -0.730834
v -0.135091 0.729113 -0.338946
v -0.504522 0.606777 0.017798
v -0.530606 -0.362615 -0.050233
v -0.444471 0.593777 0.075527
v -0.075039 0.716113 -0.281218
v 0.114419 -0.149016 -0.673106
v -0.403087 -0.390219 0.072355
v 0.241937 -0.176621 -0.550518
v 0.052479 0.688510 -0.158630
v -0.316952 0.566173 0.198114
v -0.651161 -0.158872 -0.307226
v -0.589027 0.531021 -0.216509
v -0.333856 0.615520 -0.462917
v -0.197191 -0.008541 -0.745605
v 0.330708 0.384198 0.784414
v 0.679343 0.499648 0.447751
v -0.349299 0.722320 -0.541114
v -0.697935 0.606870 -0.204451
v -0.179836 -0.051507 -0.891644
v 1.019793 -0.217785 0.326656
v 0.987704 -0.304246 0.230748
v -0.708865 -0.146381 -0.362698
v -0.646731 0.543512 -0.271981
v 0.355330 0.351013 0.712729
v 0.461348 -0.316988 0.786230
v 0.311191 -0.359534 0.616142
v 0.205172 0.308466 0.542641
v 0.392561 -0.501327 0.805453
v -0.774979 -0.248588 -0.316938
v 0.455886 -0.404521 0.871198
v -0.391560 0.628012 -0.518389
v -0.254895 0.003950 -0.801078
v 0.622820 0.439592 0.454425
v 0.911161 -0.168033 0.351865
v 0.761003 -0.210579 0.181777
v 0.472662 0.397045 0.284336
vt 0.375000 0.750000
vt 0.625000 0.750000
vt 0.625000 1.000000
vt 0.375000 1.000000
vt 0.375000 0.750000
vt 0.375000 1.000000
vt 0.625000 1.000000
vt 0.625000 0.750000
vt 0.375000 0.750000
vt 0.625000 0.750000
vt 0.625000 1.000000
vt 0.375000 1.000000
vt 0.375000 0.750000
vt 0.375000 1.000000
vt 0.625000 1.000000
vt 0.625000 0.750000
vt 0.399192 0.776679
vt 0.600808 0.787247
vt 0.600808 0.962753
vt 0.399192 0.973321
vt 0.625000 0.500000
vt 0.875000 0.500000
vt 0.875000 0.750000
vt 0.625000 0.750000
vt 0.375000 0.000000
vt 0.625000 0.000000
vt 0.625000 0.250000
vt 0.406679 0.250000
vt 0.375000 0.231810
vt 0.399192 0.776679
vt 0.600808 0.787247
vt 0.599172 0.457533
vt 0.432507 0.468120
vt 0.432507 0.468120
vt 0.599172 0.457533
vt 0.125000 0.518190
vt 0.375000 0.518190
vt 0.375000 0.750000
vt 0.125000 0.750000
vt 0.134236 0.500000
vt 0.365764 0.500000
vt 0.406679 0.500000
vt 0.600808 0.962753
vt 0.625000 1.000000
vt 0.399192 0.973321
vt 0.375000 1.000000
vt 0.599172 0.292467
vt 0.432507 0.281880
vt 0.432507 0.281880
vt 0.599172 0.292467
vn -0.7123 0.1542 -0.6847
vn 0.7123 -0.1542 0.6847
vn 0.6741 0.4222 -0.6061
vn 0.0545 -0.9605 -0.2730
vn -0.6962 -0.0316 0.7171
vn -0.0545 0.9605 0.2730
vn 0.6962 0.0316 -0.7171
vn 0.7434 0.0445 -0.6674
vn 0.6149 -0.6770 0.4046
vn -0.6741 -0.4222 0.6061
vn 0.6613 -0.5679 0.4900
vn 0.4340 0.6134 0.6598
vn 0.9530 0.1782 0.2449
vn 0.1934 -0.0733 0.9784
vn 0.6505 0.1843 0.7368
vn 0.2953 -0.9552 -0.0218
vn -0.6303 -0.4103 0.6591
vn -0.2953 0.9552 0.0218
usemtl Dark.001
s 1
f 1/1/1 2/2/1 3/3/1 4/4/1
f 5/5/2 6/6/2 7/7/2 8/8/2
f 3/3/3 7/7/3 6/6/3 4/4/3
f 4/4/4 6/6/4 5/5/4 1/1/4
f 1/1/5 5/5/5 8/8/5 2/2/5
f 2/2/6 8/8/6 7/7/6 3/3/6
f 9/9/1 10/10/1 11/11/1 12/12/1
f 13/13/2 14/14/2 15/15/2 16/16/2
f 11/11/3 15/15/3 14/14/3 12/12/3
f 12/12/4 14/14/4 13/13/4 9/9/4
f 9/9/5 13/13/5 16/16/5 10/10/5
f 10/10/6 16/16/6 15/15/6 11/11/6
f 17/17/1 18/18/1 19/19/1 20/20/1
usemtl Light
f 21/21/6 22/22/6 23/23/6 24/24/6
f 25/25/3 23/26/3 22/27/3 26/28/3 27/29/3
f 28/30/7 29/31/7 18/18/7 17/17/7
f 30/32/8 31/33/8 32/34/8 33/35/8
f 27/36/4 34/37/4 35/38/4 25/39/4
f 34/37/9 27/36/9 26/40/9 36/41/9
f 34/37/5 36/42/5 21/21/5 24/24/5 35/38/5
f 37/43/1 29/31/1 24/24/1 23/44/1
f 28/30/1 38/45/1 25/46/1 35/38/1
f 29/31/1 28/30/1 35/38/1 24/24/1
f 38/45/1 37/43/1 23/44/1 25/46/1
f 29/31/4 37/43/4 19/19/4 18/18/4
f 37/43/10 38/45/10 20/20/10 19/19/10
f 38/45/6 28/30/6 17/17/6 20/20/6
f 30/32/11 39/47/11 22/27/11 21/21/11
f 40/48/12 31/33/12 36/42/12 26/28/12
f 31/33/13 30/32/13 21/21/13 36/42/13
f 39/47/14 40/48/14 26/28/14 22/27/14
f 41/49/15 42/50/15 33/35/15 32/34/15
f 39/47/16 30/32/16 33/35/16 42/50/16
f 40/48/17 39/47/17 42/50/17 41/49/17
f 31/33/18 40/48/18 41/49/18 32/34/18
