# Blender v2.80 (sub 75) OBJ File: ''
# www.blender.org
mtllib junk0.mtl
o Ship_2.001_Cube.000
v -1.685881 0.293123 -0.281737
v -0.447567 1.837052 0.244184
v 0.283726 1.838898 -0.599270
v -0.409050 0.296346 -1.754401
v -1.465477 0.051432 -0.091170
v -0.188645 0.054655 -1.563833
v 0.504131 1.597207 -0.408703
v -0.227162 1.595361 0.434752
v -1.361684 -0.062385 -0.001428
v -0.123369 1.481544 0.524493
v 0.607924 1.483389 -0.318962
v -0.084851 -0.059162 -1.474092
v -1.141278 -0.304076 0.189139
v 0.135553 -0.300853 -1.283525
v 0.828329 1.241699 -0.128395
v 0.097036 1.239853 0.715060
v -1.399101 0.549011 -0.414584
v -0.505843 1.662724 -0.035211
v -0.000729 1.663998 -0.617795
v -0.500463 0.551279 -1.451048
v 1.163408 -0.044189 1.595232
v 1.853535 -0.042447 0.799257
v 0.075618 1.907178 -0.737971
v -0.614511 1.905436 0.058004
v -0.544044 0.527423 -1.771193
v 1.645045 -1.612141 0.184577
v 1.473946 -1.685460 -0.026392
v -1.498836 0.658379 -0.500817
v -0.605579 1.772091 -0.121444
v 1.157437 -0.094205 1.427679
v 0.619947 -1.424558 1.323344
v 0.272408 -1.260542 1.022379
v 0.809896 0.069811 1.126714
v 0.295853 -1.688434 1.332388
v -1.722137 0.524449 -0.412412
v 0.528785 -1.614958 1.472041
v -0.100465 1.773366 -0.704029
v -0.600198 0.660647 -1.537282
v 1.686937 -0.092868 0.816968
v 1.510357 -1.422311 0.296370
v 1.162817 -1.258294 -0.004595
v 1.339396 0.071148 0.516002
vt 0.465966 0.468878
vt 0.412332 0.728211
vt 0.268540 0.728211
vt 0.214906 0.468878
vt 0.717025 0.965785
vt 0.465966 0.965785
vt 0.519599 0.706549
vt 0.663391 0.706549
vt 0.263663 0.989758
vt 0.214906 0.989862
vt 0.214906 0.728316
vt 0.263663 0.728211
vt 0.458466 0.980305
vt 0.409821 0.980305
vt 0.409821 0.728211
vt 0.458466 0.728211
vt 0.312420 0.728211
vt 0.361177 0.728315
vt 0.361177 0.989862
vt 0.312420 0.989758
vt 0.765669 0.855615
vt 0.814313 0.855615
vt 0.814313 1.000000
vt 0.765669 1.000000
vt 0.465966 0.706549
vt 0.519599 0.447216
vt 0.663391 0.447216
vt 0.717025 0.706549
vt 0.948669 0.259236
vt 0.697610 0.259236
vt 0.751244 0.000000
vt 0.895035 0.000000
vt 0.263663 0.728316
vt 0.312420 0.728211
vt 0.312420 0.989758
vt 0.263663 0.989862
vt 0.361177 0.728211
vt 0.409821 0.728211
vt 0.409821 0.980305
vt 0.361177 0.980305
vt 0.135698 0.689269
vt 0.184454 0.689374
vt 0.184454 0.950921
vt 0.135698 0.950816
vt 0.717025 0.855615
vt 0.765669 0.855615
vt 0.765669 1.000000
vt 0.717025 1.000000
vt 0.874306 0.259236
vt 0.835618 0.446305
vt 0.736299 0.446305
vt 0.697610 0.259236
vt 0.000000 0.468878
vt 0.135698 0.468878
vt 0.135698 0.862890
vt 0.000000 0.862890
vt 0.465966 0.468878
vt 0.232983 0.468377
vt 0.232983 0.073453
vt 0.436443 0.000000
vt 0.465966 0.020627
vt 0.970732 0.000076
vt 0.970732 0.185150
vt 0.948669 0.185074
vt 0.948669 0.000000
vt 1.000000 0.259659
vt 1.000000 0.440764
vt 0.937153 0.440341
vt 0.937153 0.259236
vt 0.465966 0.000000
vt 0.697610 0.000000
vt 0.697610 0.447216
vt 0.465966 0.447216
vt 0.184454 0.921869
vt 0.184455 0.689269
vt 0.214277 0.695373
vt 0.214277 0.915764
vt 0.232983 0.448251
vt 0.203460 0.468878
vt 0.000000 0.395424
vt 0.000000 0.000500
vt 0.232983 0.000000
vt 0.925681 0.613380
vt 0.925681 0.513651
vt 0.948036 0.495387
vt 0.948036 0.631644
vt 0.739379 0.474803
vt 0.739380 0.652228
vt 0.717025 0.679815
vt 0.717025 0.447216
vt 0.022012 0.862890
vt 0.022012 0.962618
vt 0.000000 0.962618
vt 0.000000 0.862890
vt 0.948036 0.632366
vt 0.948036 0.447292
vt 0.970099 0.447216
vt 0.970099 0.632290
vt 0.992111 0.447216
vt 0.992111 0.624641
vt 0.970099 0.624641
vt 0.907579 0.859104
vt 0.987061 0.926629
vt 0.989708 0.948038
vt 0.886114 0.860029
vt 0.196113 0.666973
vt 0.196113 0.491173
vt 0.213390 0.468878
vt 0.213390 0.689269
vt 0.989708 0.706473
vt 0.983084 0.679815
vt 0.970732 0.193777
vt 0.970732 0.020292
vt 0.989179 0.000000
vt 0.989179 0.204836
vt 0.886114 0.855615
vt 0.717025 0.819987
vt 0.717025 0.715444
vt 0.886114 0.679815
vt 0.814313 0.960159
vt 0.814313 0.855615
vt 0.874729 0.855615
vt 0.874730 0.960159
vt 0.937153 0.259236
vt 0.937153 0.440341
vt 0.874306 0.440764
vt 0.874306 0.259659
vt 0.135698 0.666973
vt 0.135698 0.491173
vn -0.5822 0.6384 -0.5034
vn 0.5822 -0.6384 0.5034
vn 0.7393 0.1581 -0.6545
vn -0.4815 -0.7697 -0.4192
vn -0.5435 0.1549 0.8250
vn 0.4815 0.7697 0.4192
vn 0.5435 -0.1549 -0.8250
vn 0.5945 -0.1787 -0.7839
vn 0.2010 -0.9644 0.1721
vn -0.7393 -0.1581 0.6545
vn 0.4816 0.7697 0.4192
vn 0.3050 -0.9155 0.2624
vn 0.7470 0.1484 0.6480
vn 0.9220 -0.3788 0.0802
vn 0.2109 -0.3806 0.9004
vn 0.7120 -0.3360 0.6166
vn -0.2529 -0.9419 -0.2213
vn -0.6914 -0.1820 0.6992
vn 0.2529 0.9419 0.2213
usemtl Dark.001
s 1
f 1/1/1 2/2/1 3/3/1 4/4/1
f 5/5/2 6/6/2 7/7/2 8/8/2
f 3/9/3 7/10/3 6/11/3 4/12/3
f 4/13/4 6/14/4 5/15/4 1/16/4
f 1/17/5 5/18/5 8/19/5 2/20/5
f 2/21/6 8/22/6 7/23/6 3/24/6
f 9/25/1 10/26/1 11/27/1 12/28/1
f 13/29/2 14/30/2 15/31/2 16/32/2
f 11/33/3 15/34/3 14/35/3 12/36/3
f 12/37/4 14/38/4 13/39/4 9/40/4
f 9/41/5 13/42/5 16/43/5 10/44/5
f 10/45/6 16/46/6 15/47/6 11/48/6
f 17/49/1 18/50/1 19/51/1 20/52/1
usemtl Light
f 21/53/6 22/54/6 23/55/6 24/56/6
f 25/57/3 23/58/3 22/59/3 26/60/3 27/61/3
f 28/62/7 29/63/7 18/64/7 17/65/7
f 30/66/8 31/67/8 32/68/8 33/69/8
f 27/70/4 34/71/4 35/72/4 25/73/4
f 34/74/9 27/75/9 26/76/9 36/77/9
f 34/78/5 36/79/5 21/80/5 24/81/5 35/82/5
f 37/83/1 29/84/1 24/85/1 23/86/1
f 28/87/1 38/88/1 25/89/1 35/90/1
f 29/84/1 28/87/1 35/90/1 24/85/1
f 38/88/1 37/83/1 23/86/1 25/89/1
f 29/91/4 37/92/4 19/93/4 18/94/4
f 37/95/10 38/96/10 20/97/10 19/98/10
f 38/99/11 28/100/11 17/101/11 20/97/11
f 30/102/12 39/103/12 22/104/12 21/105/12
f 40/106/13 31/107/13 36/108/13 26/109/13
f 31/110/14 30/102/14 21/105/14 36/111/14
f 39/112/15 40/113/15 26/114/15 22/115/15
f 41/116/16 42/117/16 33/118/16 32/119/16
f 39/120/17 30/121/17 33/122/17 42/123/17
f 40/124/18 39/125/18 42/126/18 41/127/18
f 31/107/19 40/106/19 41/128/19 32/129/19
