# Blender v2.80 (sub 75) OBJ File: ''
# www.blender.org
mtllib junk1.mtl
o Ship_2.001_Cube.000
v -1.685881 0.293123 -0.281737
v -0.447567 1.837052 0.244184
v 0.283726 1.838898 -0.599270
v -0.409050 0.296346 -1.754401
v -1.465477 0.051432 -0.091170
v -0.188645 0.054655 -1.563833
v 0.504131 1.597207 -0.408703
v -0.227162 1.595361 0.434752
v -1.361684 -0.062385 -0.001428
v -0.123369 1.481544 0.524493
v 0.607924 1.483389 -0.318962
v -0.084851 -0.059162 -1.474092
v -1.141278 -0.304076 0.189139
v 0.135553 -0.300853 -1.283525
v 0.828329 1.241699 -0.128395
v 0.097036 1.239853 0.715060
v -1.399101 0.549011 -0.414584
v -0.505843 1.662724 -0.035211
v -0.000729 1.663998 -0.617795
v -0.500463 0.551279 -1.451048
v 1.163408 -0.044189 1.595232
v 1.853535 -0.042447 0.799257
v 0.075618 1.907178 -0.737971
v -0.614511 1.905436 0.058004
v -0.544044 0.527423 -1.771193
v 1.645045 -1.612141 0.184577
v 1.473946 -1.685460 -0.026392
v -1.498836 0.658379 -0.500817
v -0.605579 1.772091 -0.121444
v 1.157437 -0.094205 1.427679
v 0.619947 -1.424558 1.323344
v 0.272408 -1.260542 1.022379
v 0.809896 0.069811 1.126714
v 0.295853 -1.688434 1.332388
v -1.722137 0.524449 -0.412412
v 0.528785 -1.614958 1.472041
v -0.100465 1.773366 -0.704029
v -0.600198 0.660647 -1.537282
v 1.686937 -0.092868 0.816968
v 1.510357 -1.422311 0.296370
v 1.162817 -1.258294 -0.004595
v 1.339396 0.071148 0.516002
vt 0.375000 0.750000
vt 0.625000 0.750000
vt 0.625000 1.000000
vt 0.375000 1.000000
vt 0.375000 0.750000
vt 0.375000 1.000000
vt 0.625000 1.000000
vt 0.625000 0.750000
vt 0.375000 0.750000
vt 0.625000 0.750000
vt 0.625000 1.000000
vt 0.375000 1.000000
vt 0.375000 0.750000
vt 0.375000 1.000000
vt 0.625000 1.000000
vt 0.625000 0.750000
vt 0.399192 0.776679
vt 0.600808 0.787247
vt 0.600808 0.962753
vt 0.399192 0.973321
vt 0.625000 0.500000
vt 0.875000 0.500000
vt 0.875000 0.750000
vt 0.625000 0.750000
vt 0.375000 0.000000
vt 0.625000 0.000000
vt 0.625000 0.250000
vt 0.406679 0.250000
vt 0.375000 0.231810
vt 0.399192 0.776679
vt 0.600808 0.787247
vt 0.599172 0.457533
vt 0.432507 0.468120
vt 0.432507 0.468120
vt 0.599172 0.457533
vt 0.125000 0.518190
vt 0.375000 0.518190
vt 0.375000 0.750000
vt 0.125000 0.750000
vt 0.134236 0.500000
vt 0.365764 0.500000
vt 0.406679 0.500000
vt 0.600808 0.962753
vt 0.625000 1.000000
vt 0.399192 0.973321
vt 0.375000 1.000000
vt 0.599172 0.292467
vt 0.432507 0.281880
vt 0.432507 0.281880
vt 0.599172 0.292467
vn -0.5822 0.6384 -0.5034
vn 0.5822 -0.6384 0.5034
vn 0.7393 0.1581 -0.6545
vn -0.4815 -0.7697 -0.4192
vn -0.5435 0.1549 0.8250
vn 0.4815 0.7697 0.4192
vn 0.5435 -0.1549 -0.8250
vn 0.5945 -0.1787 -0.7839
vn 0.2010 -0.9644 0.1721
vn -0.7393 -0.1581 0.6545
vn 0.4816 0.7697 0.4192
vn 0.3050 -0.9155 0.2624
vn 0.7470 0.1484 0.6480
vn 0.9220 -0.3788 0.0802
vn 0.2109 -0.3806 0.9004
vn 0.7120 -0.3360 0.6166
vn -0.2529 -0.9419 -0.2213
vn -0.6914 -0.1820 0.6992
vn 0.2529 0.9419 0.2213
usemtl Dark.001
s 1
f 1/1/1 2/2/1 3/3/1 4/4/1
f 5/5/2 6/6/2 7/7/2 8/8/2
f 3/3/3 7/7/3 6/6/3 4/4/3
f 4/4/4 6/6/4 5/5/4 1/1/4
f 1/1/5 5/5/5 8/8/5 2/2/5
f 2/2/6 8/8/6 7/7/6 3/3/6
f 9/9/1 10/10/1 11/11/1 12/12/1
f 13/13/2 14/14/2 15/15/2 16/16/2
f 11/11/3 15/15/3 14/14/3 12/12/3
f 12/12/4 14/14/4 13/13/4 9/9/4
f 9/9/5 13/13/5 16/16/5 10/10/5
f 10/10/6 16/16/6 15/15/6 11/11/6
f 17/17/1 18/18/1 19/19/1 20/20/1
usemtl Light
f 21/21/6 22/22/6 23/23/6 24/24/6
f 25/25/3 23/26/3 22/27/3 26/28/3 27/29/3
f 28/30/7 29/31/7 18/18/7 17/17/7
f 30/32/8 31/33/8 32/34/8 33/35/8
f 27/36/4 34/37/4 35/38/4 25/39/4
f 34/37/9 27/36/9 26/40/9 36/41/9
f 34/37/5 36/42/5 21/21/5 24/24/5 35/38/5
f 37/43/1 29/31/1 24/24/1 23/44/1
f 28/30/1 38/45/1 25/46/1 35/38/1
f 29/31/1 28/30/1 35/38/1 24/24/1
f 38/45/1 37/43/1 23/44/1 25/46/1
f 29/31/4 37/43/4 19/19/4 18/18/4
f 37/43/10 38/45/10 20/20/10 19/19/10
f 38/45/11 28/30/11 17/17/11 20/20/11
f 30/32/12 39/47/12 22/27/12 21/21/12
f 40/48/13 31/33/13 36/42/13 26/28/13
f 31/33/14 30/32/14 21/21/14 36/42/14
f 39/47/15 40/48/15 26/28/15 22/27/15
f 41/49/16 42/50/16 33/35/16 32/34/16
f 39/47/17 30/32/17 33/35/17 42/50/17
f 40/48/18 39/47/18 42/50/18 41/49/18
f 31/33/19 40/48/19 41/49/19 32/34/19
